name D:\school\WTK\thesis\model\3dpredictsim\Results\MidTarsalJoint\Fal_s1_bCst_PF_Natali2010_ls148_MT_nl_fitted_Tmtp_ig24_v2_Wmtp5e5.mot
datacolumns 128
datarows 4
range 1.70344925 1.73751824
endheader
time	pelvis_tilt	pelvis_list	pelvis_rotation	pelvis_tx	pelvis_ty	pelvis_tz	hip_flexion_l	hip_adduction_l	hip_rotation_l	hip_flexion_r	hip_adduction_r	hip_rotation_r	knee_angle_l	knee_angle_r	ankle_angle_l	ankle_angle_r	subtalar_angle_l	subtalar_angle_r	tmt_angle_l	tmt_angle_r	mtp_angle_l	mtp_angle_r	lumbar_extension	lumbar_bending	lumbar_rotation	arm_flex_l	arm_add_l	arm_rot_l	arm_flex_r	arm_add_r	arm_rot_r	elbow_flex_l	elbow_flex_r	pro_sup_l	pro_sup_r	glut_med1_l/activation	glut_med2_l/activation	glut_med3_l/activation	glut_min1_l/activation	glut_min2_l/activation	glut_min3_l/activation	semimem_l/activation	semiten_l/activation	bifemlh_l/activation	bifemsh_l/activation	sar_l/activation	add_long_l/activation	add_brev_l/activation	add_mag1_l/activation	add_mag2_l/activation	add_mag3_l/activation	tfl_l/activation	pect_l/activation	grac_l/activation	glut_max1_l/activation	glut_max2_l/activation	glut_max3_l/activation	iliacus_l/activation	psoas_l/activation	quad_fem_l/activation	gem_l/activation	peri_l/activation	rect_fem_l/activation	vas_med_l/activation	vas_int_l/activation	vas_lat_l/activation	med_gas_l/activation	lat_gas_l/activation	soleus_l/activation	tib_post_l/activation	flex_dig_l/activation	flex_hal_l/activation	tib_ant_l/activation	per_brev_l/activation	per_long_l/activation	per_tert_l/activation	ext_dig_l/activation	ext_hal_l/activation	ercspn_l/activation	intobl_l/activation	extobl_l/activation	glut_med1_r/activation	glut_med2_r/activation	glut_med3_r/activation	glut_min1_r/activation	glut_min2_r/activation	glut_min3_r/activation	semimem_r/activation	semiten_r/activation	bifemlh_r/activation	bifemsh_r/activation	sar_r/activation	add_long_r/activation	add_brev_r/activation	add_mag1_r/activation	add_mag2_r/activation	add_mag3_r/activation	tfl_r/activation	pect_r/activation	grac_r/activation	glut_max1_r/activation	glut_max2_r/activation	glut_max3_r/activation	iliacus_r/activation	psoas_r/activation	quad_fem_r/activation	gem_r/activation	peri_r/activation	rect_fem_r/activation	vas_med_r/activation	vas_int_r/activation	vas_lat_r/activation	med_gas_r/activation	lat_gas_r/activation	soleus_r/activation	tib_post_r/activation	flex_dig_r/activation	flex_hal_r/activation	tib_ant_r/activation	per_brev_r/activation	per_long_r/activation	per_tert_r/activation	ext_dig_r/activation	ext_hal_r/activation	ercspn_r/activation	intobl_r/activation	extobl_r/activation	
          1.70344925	         -2.92974718	          1.96999074	         -5.55416835	          2.12931157	          0.91562421	          0.00338299	         29.23610917	          3.16015352	         -3.40871327	        -16.79777824	         -0.52692506	          6.13845638	         -9.93408080	         -7.77275232	          6.12124076	         -1.49404214	         -6.30598308	          4.38935868	         -2.21527968	          6.23638343	          4.14273526	         11.94649188	         -1.66543650	         -0.10482974	          2.05538067	         -5.58675406	        -13.48846041	          7.16571585	          5.08074039	        -13.45273786	         16.29997404	         16.70562097	         32.58951598	         86.51662706	         86.51662706	          0.05000002	          0.05000007	          0.06845655	          0.05000009	          0.05000010	          0.05000012	          0.20268907	          0.07647834	          0.13013215	          0.07031442	          0.07060511	          0.12106063	          0.25680346	          0.27561352	          0.17076633	          0.08900327	          0.05000040	          0.07787369	          0.12123565	          0.05000076	          0.06999288	          0.14048352	          0.07033064	          0.07071850	          0.53870911	          0.21492630	          0.10439670	          0.07071887	          0.10045147	          0.10485095	          0.09004133	          0.06603250	          0.07005047	          0.05888258	          0.05946410	          0.05323825	          0.05946450	          0.43660248	          0.22235506	          0.21472778	          0.15964025	          0.40321631	          0.15617067	          0.05018435	          0.10709055	          0.09309632	          0.24257579	          0.09883259	          0.07077500	          0.24911026	          0.17162595	          0.10440601	          0.05000420	          0.05000132	          0.05000152	          0.05000039	          0.10033724	          0.09530404	          0.05019365	          0.05946744	          0.05158699	          0.05978847	          0.26826386	          0.05011352	          0.05011192	          0.05002696	          0.05001460	          0.05012327	          0.42968755	          0.65390711	          0.05934633	          0.05056088	          0.05966714	          0.22559168	          0.14363996	          0.13553054	          0.11251352	          0.25850668	          0.37264542	          0.34568085	          0.28669217	          0.26550431	          0.34492765	          0.05000009	          0.05000018	          0.09912804	          0.05000026	          0.05000009	          0.05000040	          0.05000042	          0.07071852	          0.05946419	
          1.71480558	         -2.92629880	          2.07149255	         -5.85817451	          2.14641412	          0.91477178	          0.00320323	         28.62956916	          3.40682708	         -3.13962938	        -16.74657995	         -0.84305410	          5.90209729	        -10.68278847	         -9.59547969	          5.50670643	         -2.00130296	         -6.63477503	          5.24024267	         -2.78100075	          5.57867567	          4.16285995	         13.39819370	         -1.45438587	         -0.30214582	          2.10995467	         -6.51342686	        -13.49205978	          7.11367303	          4.83327188	        -13.45120859	         16.62647353	         16.33300931	         33.79373224	         86.51662706	         86.51662706	          0.20475260	          0.18912014	          0.19321826	          0.26179601	          0.18585584	          0.16469237	          0.17043125	          0.06532702	          0.10942174	          0.08410418	          0.05936913	          0.10179396	          0.21593339	          0.23174988	          0.14358919	          0.09147819	          0.05000122	          0.06548102	          0.10194176	          0.05000376	          0.05895848	          0.11812584	          0.05913877	          0.05946381	          0.45297386	          0.18072104	          0.18158152	          0.05946401	          0.08446474	          0.08816404	          0.07571135	          0.05552357	          0.05890215	          0.05000047	          0.05000055	          0.05000072	          0.05000135	          0.48284363	          0.33770789	          0.18055441	          0.19312916	          0.49414669	          0.17365440	          0.05000007	          0.15063183	          0.07828010	          0.29302211	          0.08310349	          0.05951123	          0.26838297	          0.14431191	          0.08778992	          0.05000264	          0.05000048	          0.05000037	          0.05000036	          0.08436894	          0.08013664	          0.05000141	          0.05000380	          0.05000259	          0.05027413	          0.22557053	          0.05000144	          0.05000092	          0.05000285	          0.05000237	          0.05000202	          0.36955088	          0.63300935	          0.05000024	          0.05000088	          0.05017127	          0.20008687	          0.12114988	          0.12754045	          0.11769646	          0.21736547	          0.31333918	          0.30385931	          0.25787163	          0.22325076	          0.29004914	          0.05000005	          0.07395791	          0.12440364	          0.05000029	          0.05000008	          0.05000030	          0.05000005	          0.05946371	          0.05000055	
          1.72616191	         -2.92145345	          2.16785074	         -6.12299606	          2.16366539	          0.91406483	          0.00299658	         27.96806997	          3.62224894	         -2.87219644	        -16.63433200	         -1.15627882	          5.66845091	        -11.35596870	        -11.49015284	          4.84170077	         -2.59466094	         -6.96450695	          6.06918738	         -3.16204259	          4.69560221	          4.18266489	         14.93568331	         -1.24157175	         -0.50427375	          2.15753759	         -7.43673198	        -13.49468038	          7.10535981	          4.53386155	        -13.45374032	         16.91116282	         16.01332119	         34.95695608	         86.51662706	         86.51662706	          0.27995304	          0.27711355	          0.29395653	          0.22013364	          0.21206374	          0.21059331	          0.14330721	          0.05493076	          0.09200737	          0.07071919	          0.05000094	          0.08559357	          0.18156778	          0.19486724	          0.12073831	          0.12185691	          0.05000134	          0.05506066	          0.08571825	          0.16539330	          0.13269066	          0.12351061	          0.05000022	          0.05000038	          0.38088334	          0.15195950	          0.15821423	          0.05000050	          0.07111260	          0.10431818	          0.08580532	          0.05000009	          0.05000021	          0.05000003	          0.05000014	          0.05000066	          0.05000061	          0.55814162	          0.32641942	          0.19825315	          0.37183455	          0.51284045	          0.23623901	          0.07512219	          0.12715885	          0.06582187	          0.29342199	          0.06987768	          0.05004014	          0.26496011	          0.12134487	          0.07381828	          0.05000205	          0.05000031	          0.05000025	          0.05000033	          0.07094217	          0.09568687	          0.05000091	          0.05000115	          0.05000249	          0.05000106	          0.18967171	          0.05009323	          0.05000162	          0.05000458	          0.05000273	          0.05000196	          0.31404513	          0.60092492	          0.05000057	          0.05000171	          0.05000038	          0.16824344	          0.15173262	          0.14303708	          0.13607667	          0.18277185	          0.26347143	          0.25550025	          0.22681848	          0.18772097	          0.24388848	          0.05000006	          0.07278160	          0.13536550	          0.05000029	          0.05000012	          0.05000033	          0.05902749	          0.05000010	          0.05000005	
          1.73751824	         -2.91527678	          2.25408893	         -6.34663215	          2.18092892	          0.91356081	          0.00275793	         27.33354889	          3.84435620	         -2.61218248	        -16.44917166	         -1.45947641	          5.44596485	        -12.07281966	        -13.44843478	          4.19087091	         -3.26188016	         -7.29469442	          6.87630438	         -3.30929903	          3.52995883	          4.20101005	         16.55791452	         -1.03712944	         -0.70925857	          2.19953085	         -8.32693832	        -13.49413248	          7.12116263	          4.21214038	        -13.45986573	         17.18456848	         15.73120781	         36.04345394	         86.51662706	         86.51662706	          0.34104186	          0.32969505	          0.35181852	          0.18510144	          0.17850515	          0.19240620	          0.12049997	          0.05784896	          0.07736476	          0.05946447	          0.05000108	          0.07197147	          0.15267148	          0.16385479	          0.13034731	          0.14969747	          0.05000057	          0.05000199	          0.07207710	          0.21807819	          0.17627988	          0.15692902	          0.05000019	          0.05000018	          0.32026602	          0.12777537	          0.13321226	          0.05000014	          0.13190043	          0.14351177	          0.12070742	          0.05000005	          0.05000011	          0.05000001	          0.05000005	          0.05000022	          0.05000023	          0.61031120	          0.30518251	          0.17527916	          0.49219194	          0.56040978	          0.27936483	          0.08354351	          0.10692183	          0.05534638	          0.30381110	          0.05875677	          0.05000012	          0.27936456	          0.10203301	          0.06207022	          0.05000254	          0.05000037	          0.05000033	          0.05000032	          0.05965217	          0.13263030	          0.05524860	          0.05000209	          0.05000248	          0.05000194	          0.15948585	          0.07037735	          0.05000149	          0.05000224	          0.05000152	          0.05000123	          0.26406507	          0.55156871	          0.05000025	          0.05000091	          0.05000033	          0.14146761	          0.14146638	          0.14146643	          0.14146622	          0.15368380	          0.22154009	          0.21483750	          0.19074670	          0.15784555	          0.20507398	          0.05000023	          0.07948813	          0.12716649	          0.05000157	          0.09298156	          0.05000113	          0.07323390	          0.05000002	          0.05000006	
